<mxfile host="app.diagrams.net" modified="2021-07-21T06:02:27.426Z" agent="5.0 (Windows NT 10.0; Win64; x64) AppleWebKit/537.36 (KHTML, like Gecko) Chrome/91.0.4472.124 Safari/537.36 Edg/91.0.864.67" etag="aZpb-DqGEOua9gbNruP3" version="14.9.0" type="github">
  <diagram name="Page-1" id="8ce9d11a-91a2-4d17-14d8-a56ed91bf033">
    <mxGraphModel dx="1221" dy="644" grid="1" gridSize="10" guides="1" tooltips="1" connect="1" arrows="1" fold="1" page="1" pageScale="1" pageWidth="1169" pageHeight="827" background="none" math="0" shadow="0">
      <root>
        <mxCell id="0" />
        <mxCell id="1" parent="0" />
        <mxCell id="AwNw5JYC8Uk12WGBqzZV-2" value="&lt;font style=&quot;font-size: 24px&quot;&gt;手动创建工单&lt;/font&gt;" style="text;html=1;strokeColor=none;fillColor=none;align=center;verticalAlign=middle;whiteSpace=wrap;rounded=0;" vertex="1" parent="1">
          <mxGeometry x="60" y="70" width="190" height="50" as="geometry" />
        </mxCell>
        <mxCell id="AwNw5JYC8Uk12WGBqzZV-7" value="创建工单&lt;br&gt;工单编辑页面" style="rounded=1;whiteSpace=wrap;html=1;" vertex="1" parent="1">
          <mxGeometry x="60" y="220" width="100" height="50" as="geometry" />
        </mxCell>
        <mxCell id="AwNw5JYC8Uk12WGBqzZV-25" value="提交审核" style="rounded=1;whiteSpace=wrap;html=1;" vertex="1" parent="1">
          <mxGeometry x="202" y="220" width="100" height="50" as="geometry" />
        </mxCell>
        <mxCell id="AwNw5JYC8Uk12WGBqzZV-26" value="审核通过" style="rounded=1;whiteSpace=wrap;html=1;" vertex="1" parent="1">
          <mxGeometry x="343" y="220" width="100" height="50" as="geometry" />
        </mxCell>
        <mxCell id="AwNw5JYC8Uk12WGBqzZV-28" value="短信发送易签宝" style="rounded=1;whiteSpace=wrap;html=1;" vertex="1" parent="1">
          <mxGeometry x="485" y="220" width="100" height="50" as="geometry" />
        </mxCell>
        <mxCell id="AwNw5JYC8Uk12WGBqzZV-29" value="用户同意协议" style="rounded=1;whiteSpace=wrap;html=1;" vertex="1" parent="1">
          <mxGeometry x="630" y="220" width="100" height="50" as="geometry" />
        </mxCell>
        <mxCell id="AwNw5JYC8Uk12WGBqzZV-32" value="仓库收到用户机&lt;br&gt;确认收货" style="rounded=1;whiteSpace=wrap;html=1;" vertex="1" parent="1">
          <mxGeometry x="920" y="220" width="100" height="50" as="geometry" />
        </mxCell>
        <mxCell id="AwNw5JYC8Uk12WGBqzZV-33" value="" style="group" vertex="1" connectable="0" parent="1">
          <mxGeometry x="780" y="190" width="100" height="110" as="geometry" />
        </mxCell>
        <mxCell id="AwNw5JYC8Uk12WGBqzZV-30" value="用户自行寄回&lt;br&gt;（短信通知）" style="rounded=1;whiteSpace=wrap;html=1;" vertex="1" parent="AwNw5JYC8Uk12WGBqzZV-33">
          <mxGeometry width="100" height="50" as="geometry" />
        </mxCell>
        <mxCell id="AwNw5JYC8Uk12WGBqzZV-31" value="安排上门取件" style="rounded=1;whiteSpace=wrap;html=1;" vertex="1" parent="AwNw5JYC8Uk12WGBqzZV-33">
          <mxGeometry y="60" width="100" height="50" as="geometry" />
        </mxCell>
        <mxCell id="AwNw5JYC8Uk12WGBqzZV-34" value="SAP确认入库&lt;br&gt;入库完成" style="rounded=1;whiteSpace=wrap;html=1;" vertex="1" parent="1">
          <mxGeometry x="1060" y="220" width="100" height="50" as="geometry" />
        </mxCell>
        <mxCell id="AwNw5JYC8Uk12WGBqzZV-35" value="WMS置换机出库申请" style="rounded=1;whiteSpace=wrap;html=1;" vertex="1" parent="1">
          <mxGeometry x="1200" y="220" width="100" height="50" as="geometry" />
        </mxCell>
        <mxCell id="AwNw5JYC8Uk12WGBqzZV-36" value="置换机出库完成&lt;br&gt;用户待收货&lt;br&gt;（短信通知）" style="rounded=1;whiteSpace=wrap;html=1;" vertex="1" parent="1">
          <mxGeometry x="1340" y="220" width="100" height="50" as="geometry" />
        </mxCell>
        <mxCell id="AwNw5JYC8Uk12WGBqzZV-38" value="用户收到置换机&lt;br&gt;签收快递" style="rounded=1;whiteSpace=wrap;html=1;" vertex="1" parent="1">
          <mxGeometry x="1480" y="220" width="100" height="50" as="geometry" />
        </mxCell>
        <mxCell id="AwNw5JYC8Uk12WGBqzZV-39" value="该工单已完成" style="rounded=1;whiteSpace=wrap;html=1;" vertex="1" parent="1">
          <mxGeometry x="1620" y="220" width="100" height="50" as="geometry" />
        </mxCell>
      </root>
    </mxGraphModel>
  </diagram>
</mxfile>
